%TF.GenerationSoftware,KiCad,Pcbnew,(6.0.0)*%
%TF.CreationDate,2023-04-02T19:11:57+10:00*%
%TF.ProjectId,cpq-fpc-flex,6370712d-6670-4632-9d66-6c65782e6b69,rev?*%
%TF.SameCoordinates,Original*%
%TF.FileFunction,Paste,Bot*%
%TF.FilePolarity,Positive*%
%FSLAX46Y46*%
G04 Gerber Fmt 4.6, Leading zero omitted, Abs format (unit mm)*
G04 Created by KiCad (PCBNEW (6.0.0)) date 2023-04-02 19:11:57*
%MOMM*%
%LPD*%
G01*
G04 APERTURE LIST*
G04 Aperture macros list*
%AMOutline5P*
0 Free polygon, 5 corners , with rotation*
0 The origin of the aperture is its center*
0 number of corners: always 5*
0 $1 to $10 corner X, Y*
0 $11 Rotation angle, in degrees counterclockwise*
0 create outline with 5 corners*
4,1,5,$1,$2,$3,$4,$5,$6,$7,$8,$9,$10,$1,$2,$11*%
%AMOutline6P*
0 Free polygon, 6 corners , with rotation*
0 The origin of the aperture is its center*
0 number of corners: always 6*
0 $1 to $12 corner X, Y*
0 $13 Rotation angle, in degrees counterclockwise*
0 create outline with 6 corners*
4,1,6,$1,$2,$3,$4,$5,$6,$7,$8,$9,$10,$11,$12,$1,$2,$13*%
%AMOutline7P*
0 Free polygon, 7 corners , with rotation*
0 The origin of the aperture is its center*
0 number of corners: always 7*
0 $1 to $14 corner X, Y*
0 $15 Rotation angle, in degrees counterclockwise*
0 create outline with 7 corners*
4,1,7,$1,$2,$3,$4,$5,$6,$7,$8,$9,$10,$11,$12,$13,$14,$1,$2,$15*%
%AMOutline8P*
0 Free polygon, 8 corners , with rotation*
0 The origin of the aperture is its center*
0 number of corners: always 8*
0 $1 to $16 corner X, Y*
0 $17 Rotation angle, in degrees counterclockwise*
0 create outline with 8 corners*
4,1,8,$1,$2,$3,$4,$5,$6,$7,$8,$9,$10,$11,$12,$13,$14,$15,$16,$1,$2,$17*%
G04 Aperture macros list end*
%ADD10Outline5P,-0.750000X2.150000X-0.150000X2.750000X0.750000X2.750000X0.750000X-2.750000X-0.750000X-2.750000X0.000000*%
%ADD11Outline6P,-0.375000X2.450000X-0.075000X2.750000X0.075000X2.750000X0.375000X2.450000X0.375000X-2.750000X-0.375000X-2.750000X0.000000*%
%ADD12Outline5P,-0.750000X2.750000X0.150000X2.750000X0.750000X2.150000X0.750000X-2.750000X-0.750000X-2.750000X0.000000*%
G04 APERTURE END LIST*
D10*
%TO.C,J2*%
X113450000Y-126825000D03*
D11*
X114829000Y-126825000D03*
X115833000Y-126825000D03*
X116837000Y-126825000D03*
X117841000Y-126825000D03*
X118845000Y-126825000D03*
X119849000Y-126825000D03*
X120853000Y-126825000D03*
X121857000Y-126825000D03*
X122861000Y-126825000D03*
X123865000Y-126825000D03*
X124869000Y-126825000D03*
X125873000Y-126825000D03*
X126877000Y-126825000D03*
X127881000Y-126825000D03*
X128885000Y-126825000D03*
X129889000Y-126825000D03*
X130893000Y-126825000D03*
X131897000Y-126825000D03*
X132901000Y-126825000D03*
X133905000Y-126825000D03*
X134909000Y-126825000D03*
X135913000Y-126825000D03*
X136917000Y-126825000D03*
X137921000Y-126825000D03*
D12*
X139300000Y-126825000D03*
%TD*%
D10*
%TO.C,J1*%
X175713000Y-131375000D03*
D11*
X177092000Y-131375000D03*
X178096000Y-131375000D03*
X179100000Y-131375000D03*
X180104000Y-131375000D03*
X181108000Y-131375000D03*
X182112000Y-131375000D03*
X183116000Y-131375000D03*
X184120000Y-131375000D03*
X185124000Y-131375000D03*
X186128000Y-131375000D03*
X187132000Y-131375000D03*
X188136000Y-131375000D03*
X189140000Y-131375000D03*
X190144000Y-131375000D03*
X191148000Y-131375000D03*
X192152000Y-131375000D03*
X193156000Y-131375000D03*
X194160000Y-131375000D03*
X195164000Y-131375000D03*
X196168000Y-131375000D03*
X197172000Y-131375000D03*
X198176000Y-131375000D03*
X199180000Y-131375000D03*
X200184000Y-131375000D03*
D12*
X201563000Y-131375000D03*
%TD*%
M02*
